# File created by Blade
# Date/Time:  Fri Jan 16 19:14:41 2015
#---------------------------------------------------------
:version 1.10
:name HOM
:units
  mass 1.0
  length 1.000000
  angle deg
:documentation
     Acclaim Skeleton File
:root
   axis xyz
   order TX TY TZ RX RY RZ
   position 0.000000 0.000000 0.000000
   orientation 0 0 0
:bonedata
   begin
      id 1
      name Spine_dum
      direction 0.000000 1.000000 0.000000
      length 7.067664
      axis 0.0 0.0 0.0 xyz
   end
   begin
      id 2
      name LeftUpLeg_dum
      direction 1.000000 0.000000 0.000000
      length 4.013002
      axis 0.0 0.0 0.0 xyz
   end
   begin
      id 3
      name RightUpLeg_dum
      direction -1.000000 0.000000 0.000000
      length 4.013002
      axis 0.0 0.0 0.0 xyz
   end
   begin
      id 4
      name Spine
      direction 0.000000 1.000000 0.000000
      length 0.000000
      axis 0.0 0.0 0.0 xyz
      dof rx ry rz
   end
   begin
      id 5
      name Spine_dum1
      direction 0.000000 1.000000 0.000000
      length 15.039886
      axis 0.0 0.0 0.0 xyz
   end
   begin
      id 6
      name Spine_dum2
      direction 0.000000 1.000000 0.000000
      length 10.530368
      axis 0.0 0.0 0.0 xyz
   end
   begin
      id 7
      name Spine_dum3
      direction 0.000000 1.000000 0.000000
      length 10.530368
      axis 0.0 0.0 0.0 xyz
   end
   begin
      id 8
      name Head
      direction 0.000000 1.000000 0.000000
      length 4.527550
      axis 0.0 0.0 0.0 xyz
      dof rx ry rz
   end
   begin
      id 9
      name LeftShoulder
      direction 1.000000 0.000000 0.000000
      length 7.028855
      axis 0.0 0.0 -90.0 xyz
      dof rx ry rz
   end
   begin
      id 10
      name LeftArm
      direction 1.000000 0.000000 0.000000
      length 10.797705
      axis 0.0 0.0 -90.0 xyz
      dof rx ry rz
   end
   begin
      id 11
      name LeftForeArm
      direction 1.000000 0.000000 0.000000
      length 7.907442
      axis 0.0 0.0 -90.0 xyz
      dof ry rz rx
   end
   begin
      id 12
      name LeftHand
      direction 0.000000 0.000000 0.000000
      length 0.000000
      axis 0.0 0.0 -90.0 xyz
      dof rx ry rz
   end
   begin
      id 13
      name LeftHand_dum1
      direction 0.000000 0.000000 0.000000
      length 0.000000
      axis 0.0 0.0 -90.0 xyz
   end
   begin
      id 14
      name LeftHand_dum2
      direction 1.000000 0.000000 0.000000
      length 3.937000
      axis 0.0 0.0 -90.0 xyz
   end
   begin
      id 15
      name LeftHandThumb1
      direction 0.000000 0.000000 1.000000
      length 3.937000
      axis 0.0 0.0 -90.0 xyz
      dof rx rz ry
   end
   begin
      id 16
      name RightShoulder
      direction -1.000000 0.000000 0.000000
      length 7.028855
      axis 0.0 0.0 90.0 xyz
      dof rx ry rz
   end
   begin
      id 17
      name RightArm
      direction -1.000000 0.000000 0.000000
      length 10.797705
      axis 0.0 0.0 90.0 xyz
      dof rx ry rz
   end
   begin
      id 18
      name RightForeArm
      direction -1.000000 0.000000 0.000000
      length 7.907442
      axis 0.0 0.0 90.0 xyz
      dof ry rz rx
   end
   begin
      id 19
      name RightHand
      direction 0.000000 0.000000 0.000000
      length 0.000000
      axis 0.0 0.0 90.0 xyz
      dof rx ry rz
   end
   begin
      id 20
      name RightHand_dum1
      direction 0.000000 0.000000 0.000000
      length 0.000000
      axis 0.0 0.0 90.0 xyz
   end
   begin
      id 21
      name RightHand_dum2
      direction -1.000000 0.000000 0.000000
      length 3.937000
      axis 0.0 0.0 90.0 xyz
   end
   begin
      id 22
      name RightHandThumb1
      direction 0.000000 0.000000 1.000000
      length 3.937000
      axis 0.0 0.0 90.0 xyz
      dof rx rz ry
   end
   begin
      id 23
      name LeftUpLeg
      direction 0.000000 -1.000000 0.000000
      length 16.899758
      axis 0.0 0.0 0.0 xyz
      dof rx ry rz
   end
   begin
      id 24
      name LeftLeg
      direction 0.000000 -1.000000 0.000000
      length 17.389183
      axis 0.0 0.0 0.0 xyz
      dof rx ry rz
   end
   begin
      id 25
      name LeftFoot
      direction 0.000000 -0.258819 0.965926
      length 4.924528
      axis 15.0 0.0 0.0 xyz
      dof rx ry rz
   end
   begin
      id 26
      name LeftToeBase
      direction 0.000000 0.000000 1.000000
      length 2.952750
      axis 0.0 0.0 0.0 xyz
      dof rx ry rz
   end
   begin
      id 27
      name RightUpLeg
      direction 0.000000 -1.000000 0.000000
      length 16.899758
      axis 0.0 0.0 0.0 xyz
      dof rx ry rz
   end
   begin
      id 28
      name RightLeg
      direction 0.000000 -1.000000 0.000000
      length 17.389183
      axis 0.0 0.0 0.0 xyz
      dof rx ry rz
   end
   begin
      id 29
      name RightFoot
      direction 0.000000 -0.258819 0.965926
      length 4.924528
      axis 15.0 0.0 0.0 xyz
      dof rx ry rz
   end
   begin
      id 30
      name RightToeBase
      direction 0.000000 0.000000 1.000000
      length 2.952750
      axis 0.0 0.0 0.0 xyz
      dof rx ry rz
   end
:hierarchy
   begin
      root Spine_dum LeftUpLeg_dum RightUpLeg_dum
      Spine_dum Spine
      LeftUpLeg_dum LeftUpLeg
      RightUpLeg_dum RightUpLeg
      Spine Spine_dum1 Spine_dum2 Spine_dum3
      Spine_dum1 Head
      Spine_dum2 LeftShoulder
      Spine_dum3 RightShoulder
      LeftShoulder LeftArm
      LeftArm LeftForeArm
      LeftForeArm LeftHand
      LeftHand LeftHand_dum1 LeftHand_dum2
      LeftHand_dum1 LeftHandThumb1
      RightShoulder RightArm
      RightArm RightForeArm
      RightForeArm RightHand
      RightHand RightHand_dum1 RightHand_dum2
      RightHand_dum1 RightHandThumb1
      LeftUpLeg LeftLeg
      LeftLeg LeftFoot
      LeftFoot LeftToeBase
      RightUpLeg RightLeg
      RightLeg RightFoot
      RightFoot RightToeBase
   end

# File created by Blade
# Date/Time:  Fri Jan 16 19:14:28 2015
# Frame Rate: 120.000 fps
#------------------------------------------------------
:FULLY-SPECIFIED
:DEGREES
78
root 19.306767 35.553562 -22.628961 -170.215552 -2.674567 -178.648694
Spine -20.388501 0.171437 0.622590
Head 8.165271 -0.607330 2.371928
LeftShoulder -13.842256 -32.853994 25.306515
LeftArm 2.477268 -1.152518 -3.748659
LeftForeArm 10.488300 -0.000000 -3.913424
LeftHand -9.811443 -0.000000 -11.011067
LeftHandThumb1 -26.253704 0.000000 33.147579
RightShoulder -13.052473 -3.942943 -14.399600
RightArm 0.803157 43.566150 6.216836
RightForeArm -39.188435 -0.000000 2.667407
RightHand -3.678820 -0.000000 13.957225
RightHandThumb1 -24.326973 -0.000000 -32.862282
LeftUpLeg -0.069575 6.539216 1.423530
LeftLeg -6.570644 -0.000000 0.000000
LeftFoot -21.234995 28.283741 -13.899329
LeftToeBase 25.306427 -0.000000 -0.000000
RightUpLeg -1.110855 -9.205947 1.356587
RightLeg -3.496370 -0.000000 0.000000
RightFoot -21.716482 -24.355599 17.581180
RightToeBase 23.400445 -0.000000 -0.000000
79
root 19.306172 35.555889 -22.630131 -170.247406 -2.657342 -178.646238
Spine -20.404515 0.154720 0.644397
Head 8.282937 -0.542757 2.343945
LeftShoulder -13.800058 -33.144960 25.475494
LeftArm 2.643101 -0.984970 -3.513488
LeftForeArm 10.720589 -0.000000 -3.890878
LeftHand -9.904110 -0.000000 -11.153133
LeftHandThumb1 -26.253704 0.000000 33.147579
RightShoulder -12.979928 -3.743229 -14.616568
RightArm 0.946593 43.476753 5.890250
RightForeArm -39.546747 -0.000000 2.684761
RightHand -3.670577 -0.000000 14.088479
RightHandThumb1 -24.326973 -0.000000 -32.862282
LeftUpLeg -0.037808 6.549104 1.425954
LeftLeg -6.560175 -0.000000 0.000000
LeftFoot -21.228642 28.281175 -13.916906
LeftToeBase 25.284321 -0.000000 -0.000000
RightUpLeg -1.090610 -9.175943 1.348709
RightLeg -3.470772 -0.000000 0.000000
RightFoot -21.700022 -24.362304 17.588161
RightToeBase 23.350191 -0.000000 -0.000000
80
root 19.303719 35.558169 -22.632641 -170.292752 -2.658441 -178.655270
Spine -20.407851 0.125110 0.662691
Head 8.415516 -0.512929 2.290690
LeftShoulder -13.769848 -33.399173 25.648155
LeftArm 2.859642 -0.854505 -3.307441
LeftForeArm 11.128270 -0.000000 -3.912672
LeftHand -9.885725 -0.000000 -11.213654
LeftHandThumb1 -26.253704 0.000000 33.147579
RightShoulder -12.883035 -3.538373 -14.853453
RightArm 1.049889 43.345765 5.530853
RightForeArm -39.891249 0.000000 2.702363
RightHand -3.659147 -0.000000 14.168726
RightHandThumb1 -24.326973 -0.000000 -32.862282
LeftUpLeg 0.004478 6.544965 1.417882
LeftLeg -6.546270 -0.000000 0.000000
LeftFoot -21.242119 28.257606 -13.988302
LeftToeBase 25.311149 -0.000000 -0.000000
RightUpLeg -1.045861 -9.162691 1.330349
RightLeg -3.461998 -0.000000 0.000000
RightFoot -21.737556 -24.374763 17.688224
RightToeBase 23.421260 -0.000000 -0.000000
81
root 19.302100 35.560393 -22.636473 -170.330361 -2.666149 -178.657835
Spine -20.427650 0.132703 0.671005
Head 8.540475 -0.530899 2.240086
LeftShoulder -13.690624 -33.658497 25.813166
LeftArm 3.050533 -0.828847 -3.103157
LeftForeArm 11.622592 -0.000000 -3.827596
LeftHand -9.971238 -0.000000 -11.325365
LeftHandThumb1 -26.253704 0.000000 33.147579
RightShoulder -12.850375 -3.411970 -15.080185
RightArm 1.206438 43.264916 5.180647
RightForeArm -40.132700 0.000000 2.737330
RightHand -3.638999 -0.000000 14.309314
RightHandThumb1 -24.326973 -0.000000 -32.862282
LeftUpLeg 0.043205 6.537081 1.419746
LeftLeg -6.538030 -0.000000 0.000000
LeftFoot -21.233405 28.253674 -14.003850
LeftToeBase 25.241398 -0.000000 -0.000000
RightUpLeg -1.003776 -9.179697 1.321155
RightLeg -3.458090 -0.000000 0.000000
RightFoot -21.726863 -24.350713 17.713505
RightToeBase 23.369622 -0.000000 -0.000000
82
root 19.300443 35.562503 -22.640277 -170.377707 -2.672174 -178.657609
Spine -20.428967 0.143893 0.682607
Head 8.657097 -0.572490 2.185800
LeftShoulder -13.646351 -33.864096 25.999024
LeftArm 3.326760 -0.679817 -2.953441
LeftForeArm 11.865143 -0.000000 -3.811741
LeftHand -10.047806 -0.000000 -11.291225
LeftHandThumb1 -26.253704 0.000000 33.147579
RightShoulder -12.839944 -3.252217 -15.325929
RightArm 1.436815 43.159344 4.869582
RightForeArm -40.510456 -0.000000 2.738177
RightHand -3.588295 0.000000 14.342316
RightHandThumb1 -24.326973 -0.000000 -32.862282
LeftUpLeg 0.091550 6.519073 1.423607
LeftLeg -6.527704 -0.000000 0.000000
LeftFoot -21.237864 28.251641 -14.058294
LeftToeBase 25.207290 -0.000000 -0.000000
RightUpLeg -0.957115 -9.193942 1.311765
RightLeg -3.442120 -0.000000 0.000000
RightFoot -21.732717 -24.332893 17.764356
RightToeBase 23.339667 -0.000000 -0.000000
83
root 19.298959 35.565109 -22.643619 -170.449498 -2.679126 -178.665671
Spine -20.393584 0.149601 0.689731
Head 8.753474 -0.606503 2.115071
LeftShoulder -13.590698 -34.177220 26.184945
LeftArm 3.582476 -0.509402 -2.749546
LeftForeArm 12.292135 -0.000000 -3.780228
LeftHand -10.053525 0.000000 -11.317388
LeftHandThumb1 -26.253704 0.000000 33.147579
RightShoulder -12.831848 -3.032969 -15.568571
RightArm 1.708077 42.861224 4.522288
RightForeArm -40.812163 -0.000000 2.674012
RightHand -3.650520 -0.000000 14.237614
RightHandThumb1 -24.326973 -0.000000 -32.862282
LeftUpLeg 0.164254 6.495673 1.424030
LeftLeg -6.519022 -0.000000 0.000000
LeftFoot -21.245705 28.250682 -14.117102
LeftToeBase 25.175619 -0.000000 -0.000000
RightUpLeg -0.878725 -9.195507 1.290588
RightLeg -3.441202 -0.000000 0.000000
RightFoot -21.735247 -24.333819 17.822687
RightToeBase 23.340820 -0.000000 -0.000000
84
root 19.295876 35.567299 -22.648041 -170.472619 -2.695779 -178.676147
Spine -20.425546 0.127376 0.710077
Head 8.852968 -0.602701 2.038696
LeftShoulder -13.583969 -34.491620 26.418438
LeftArm 3.850929 -0.171517 -2.552778
LeftForeArm 12.661375 -0.000000 -3.712087
LeftHand -10.071742 -0.000000 -11.423241
LeftHandThumb1 -26.253704 0.000000 33.147579
RightShoulder -12.774909 -2.795101 -15.879742
RightArm 1.913460 42.552216 4.179555
RightForeArm -41.032315 -0.000000 2.692561
RightHand -3.635243 -0.000000 14.325156
RightHandThumb1 -24.326973 -0.000000 -32.862282
LeftUpLeg 0.185338 6.473375 1.416011
LeftLeg -6.503594 -0.000000 0.000000
LeftFoot -21.248328 28.235264 -14.158692
LeftToeBase 25.171853 -0.000000 -0.000000
RightUpLeg -0.849478 -9.206097 1.272402
RightLeg -3.433513 -0.000000 0.000000
RightFoot -21.744592 -24.315904 17.870526
RightToeBase 23.345070 -0.000000 -0.000000
85
root 19.293091 35.570087 -22.651720 -170.524324 -2.697039 -178.684349
Spine -20.428413 0.098769 0.735361
Head 8.974154 -0.581338 1.974187
LeftShoulder -13.558161 -34.836376 26.663227
LeftArm 4.085717 0.094121 -2.349901
LeftForeArm 13.158173 -0.000000 -3.631028
LeftHand -10.081105 -0.000000 -11.354314
LeftHandThumb1 -26.253704 0.000000 33.147579
RightShoulder -12.687854 -2.688408 -16.117022
RightArm 2.147689 42.396928 3.772618
RightForeArm -41.240906 -0.000000 2.679459
RightHand -3.656060 -0.000000 14.266587
RightHandThumb1 -24.326973 -0.000000 -32.862282
LeftUpLeg 0.233521 6.485688 1.400582
LeftLeg -6.501561 -0.000000 0.000000
LeftFoot -21.267103 28.261828 -14.251560
LeftToeBase 25.151705 -0.000000 -0.000000
RightUpLeg -0.796094 -9.204158 1.251441
RightLeg -3.423300 -0.000000 0.000000
RightFoot -21.754994 -24.327560 17.918043
RightToeBase 23.326737 -0.000000 -0.000000
86
root 19.290201 35.571472 -22.656025 -170.546815 -2.699189 -178.687551
Spine -20.489899 0.088017 0.755159
Head 9.152839 -0.617166 1.908163
LeftShoulder -13.522476 -35.151613 26.940086
LeftArm 4.366136 0.314462 -2.170507
LeftForeArm 13.817187 -0.000000 -3.587082
LeftHand -10.057005 -0.000000 -11.562513
LeftHandThumb1 -26.253704 0.000000 33.147579
RightShoulder -12.579882 -2.500948 -16.450369
RightArm 2.303251 42.252022 3.421915
RightForeArm -41.653902 -0.000000 2.802323
RightHand -3.669809 -0.000000 14.279792
RightHandThumb1 -24.326973 -0.000000 -32.862282
LeftUpLeg 0.257825 6.486314 1.395362
LeftLeg -6.492469 -0.000000 0.000000
LeftFoot -21.271073 28.255270 -14.281621
LeftToeBase 25.129489 -0.000000 -0.000000
RightUpLeg -0.775389 -9.202923 1.239355
RightLeg -3.404004 -0.000000 0.000000
RightFoot -21.762481 -24.307864 17.974537
RightToeBase 23.285175 -0.000000 -0.000000
87
root 19.289245 35.573888 -22.659680 -170.591591 -2.698736 -178.687428
Spine -20.520126 0.091869 0.776137
Head 9.329509 -0.638502 1.828487
LeftShoulder -13.410277 -35.329046 27.110248
LeftArm 4.657803 0.396672 -1.937393
LeftForeArm 14.302721 -0.000000 -3.550965
LeftHand -10.015303 -0.000000 -11.668160
LeftHandThumb1 -26.253704 0.000000 33.147579
RightShoulder -12.490000 -2.189406 -16.791674
RightArm 2.532202 42.001789 3.050290
RightForeArm -41.990349 -0.000000 2.810828
RightHand -3.657916 -0.000000 14.245812
RightHandThumb1 -24.326973 -0.000000 -32.862282
LeftUpLeg 0.305441 6.453219 1.408603
LeftLeg -6.467520 -0.000000 0.000000
LeftFoot -21.273691 28.209674 -14.314475
LeftToeBase 25.089050 -0.000000 -0.000000
RightUpLeg -0.732419 -9.204415 1.232316
RightLeg -3.390312 -0.000000 0.000000
RightFoot -21.769729 -24.301413 18.012023
RightToeBase 23.258127 -0.000000 -0.000000
88
root 19.287374 35.576017 -22.663047 -170.631532 -2.699895 -178.695558
Spine -20.556505 0.091450 0.794361
Head 9.509190 -0.664887 1.732434
LeftShoulder -13.259140 -35.652189 27.253415
LeftArm 4.910172 0.535083 -1.614899
LeftForeArm 14.907679 -0.000000 -3.475222
LeftHand -9.926492 -0.000000 -11.857562
LeftHandThumb1 -26.253704 0.000000 33.147579
RightShoulder -12.418267 -2.017409 -17.112708
RightArm 2.812261 41.770953 2.680733
RightForeArm -42.261551 -0.000000 2.797552
RightHand -3.585233 0.000000 14.246018
RightHandThumb1 -24.326973 -0.000000 -32.862282
LeftUpLeg 0.343762 6.473919 1.401445
LeftLeg -6.454259 -0.000000 0.000000
LeftFoot -21.263502 28.179407 -14.343809
LeftToeBase 25.029834 -0.000000 -0.000000
RightUpLeg -0.693684 -9.210104 1.214489
RightLeg -3.376044 -0.000000 0.000000
RightFoot -21.773168 -24.289829 18.047928
RightToeBase 23.262588 -0.000000 -0.000000
89
root 19.284979 35.577819 -22.667115 -170.667368 -2.693986 -178.702850
Spine -20.604959 0.076704 0.818239
Head 9.691692 -0.654106 1.656272
LeftShoulder -13.213249 -35.976776 27.510025
LeftArm 5.268803 0.886086 -1.381621
LeftForeArm 15.155586 -0.000000 -3.465451
LeftHand -9.989941 -0.000000 -11.863622
LeftHandThumb1 -26.253704 0.000000 33.147579
RightShoulder -12.298388 -1.796591 -17.488474
RightArm 3.041239 41.538529 2.335977
RightForeArm -42.557236 -0.000000 2.870127
RightHand -3.618860 -0.000000 14.149949
RightHandThumb1 -24.326973 -0.000000 -32.862282
LeftUpLeg 0.380526 6.480610 1.386198
LeftLeg -6.455635 -0.000000 0.000000
LeftFoot -21.292022 28.218574 -14.426138
LeftToeBase 25.099424 -0.000000 -0.000000
RightUpLeg -0.656701 -9.197758 1.194081
RightLeg -3.362520 -0.000000 0.000000
RightFoot -21.777258 -24.287049 18.080875
RightToeBase 23.265929 -0.000000 -0.000000
